<svg version="1.1" id="Layer_1" xmlns="http://www.w3.org/2000/svg" xmlns:xlink="http://www.w3.org/1999/xlink" x="0px" y="0px"
	 width="100%" viewBox="0 0 1536 1024" enable-background="new 0 0 1536 1024" xml:space="preserve">
<path fill="#00A2E5" opacity="1.000000" stroke="none" 
	d="
M0.999999,266.000000 
	C1.000000,177.710571 1.000000,89.421135 1.000000,1.000000 
	C204.688095,1.000000 408.376221,1.000000 612.660767,1.328760 
	C643.053162,16.162685 673.190186,30.014238 702.558472,45.339008 
	C738.987976,64.348434 773.748901,86.137581 806.709167,110.844856 
	C830.624207,128.771790 853.402466,147.934143 874.904175,168.625412 
	C902.785522,195.455811 926.378662,225.867386 948.347778,257.608154 
	C966.587708,283.961121 984.662231,310.434784 1003.302856,336.502625 
	C1029.705078,373.424683 1059.401123,407.259491 1095.624390,435.143188 
	C1134.785400,465.288330 1177.966919,487.632294 1224.425903,503.919434 
	C1236.837891,508.270691 1249.489868,511.937164 1262.283936,516.180054 
	C1263.771729,516.917236 1264.973633,517.524780 1266.247559,517.848145 
	C1294.491577,525.018250 1323.311035,528.183472 1352.329956,528.813599 
	C1369.535034,529.187195 1386.791504,527.882446 1404.004883,526.960876 
	C1416.726562,526.279724 1429.433594,525.172180 1442.110840,523.894775 
	C1446.781250,523.424133 1451.347778,521.922424 1455.972168,520.926392 
	C1455.982544,520.961731 1455.912231,520.939392 1456.368896,520.955627 
	C1461.547241,520.028931 1466.268677,519.085999 1471.306885,518.058228 
	C1472.057983,517.929810 1472.492310,517.886292 1473.187988,518.098877 
	C1473.754272,518.477112 1474.094971,518.757812 1474.359741,518.698669 
	C1490.239380,515.150879 1506.120483,511.608429 1521.967407,507.919312 
	C1522.920532,507.697449 1523.596069,506.283600 1524.473145,505.374512 
	C1524.545532,505.324585 1524.690430,505.423920 1525.108521,505.568665 
	C1529.351074,504.808929 1533.175537,503.904449 1537.000000,503.000000 
	C1537.000000,537.021423 1537.000000,571.042908 1536.684570,605.673706 
	C1510.899780,620.036011 1485.729980,634.384338 1459.883545,647.387939 
	C1429.155396,662.847595 1396.574097,673.774475 1363.447388,682.818237 
	C1309.862549,697.447266 1255.209839,706.138794 1199.713867,707.651855 
	C1165.981812,708.571411 1132.149536,707.284790 1098.407837,705.888672 
	C1074.048462,704.880737 1049.739258,702.317627 1025.453857,699.970520 
	C1004.474854,697.942932 983.408630,696.141663 962.653503,692.630066 
	C930.718750,687.226990 898.847412,681.198120 867.257141,674.069885 
	C821.912354,663.837952 777.330322,650.886414 734.756592,631.777954 
	C704.461792,618.180603 674.894897,603.163513 648.066040,583.515320 
	C627.430481,568.402832 606.951050,552.895874 587.808777,535.973328 
	C565.900513,516.605469 545.067017,495.946747 524.644409,474.993164 
	C500.961975,450.694885 478.472870,425.237610 455.003204,400.726349 
	C440.614288,385.698914 425.357605,371.502380 410.490509,356.932831 
	C391.174438,338.003418 369.953217,321.467712 347.252899,306.818909 
	C319.705902,289.042511 290.711365,274.269226 259.157593,264.904907 
	C228.393692,255.774963 196.923660,250.944931 164.883316,250.045761 
	C129.913513,249.064377 95.069519,251.192734 60.446178,256.053375 
	C40.557304,258.845490 20.810667,262.650787 0.999999,266.000000 
z"/>
<path fill="#017CCA" opacity="1.000000" stroke="none" 
	d="
M0.999999,266.468628 
	C20.810667,262.650787 40.557304,258.845490 60.446178,256.053375 
	C95.069519,251.192734 129.913513,249.064377 164.883316,250.045761 
	C196.923660,250.944931 228.393692,255.774963 259.157593,264.904907 
	C290.711365,274.269226 319.705902,289.042511 347.252899,306.818909 
	C369.953217,321.467712 391.174438,338.003418 410.490509,356.932831 
	C425.357605,371.502380 440.614288,385.698914 455.003204,400.726349 
	C478.472870,425.237610 500.961975,450.694885 524.644409,474.993164 
	C545.067017,495.946747 565.900513,516.605469 587.808777,535.973328 
	C606.951050,552.895874 627.430481,568.402832 648.066040,583.515320 
	C674.894897,603.163513 704.461792,618.180603 734.756592,631.777954 
	C777.330322,650.886414 821.912354,663.837952 867.257141,674.069885 
	C898.847412,681.198120 930.718750,687.226990 962.653503,692.630066 
	C983.408630,696.141663 1004.474854,697.942932 1025.453857,699.970520 
	C1049.739258,702.317627 1074.048462,704.880737 1098.407837,705.888672 
	C1132.149536,707.284790 1165.981812,708.571411 1199.713867,707.651855 
	C1255.209839,706.138794 1309.862549,697.447266 1363.447388,682.818237 
	C1396.574097,673.774475 1429.155396,662.847595 1459.883545,647.387939 
	C1485.729980,634.384338 1510.899780,620.036011 1536.684570,606.141479 
	C1537.000000,645.687561 1537.000000,685.375122 1536.653320,725.550659 
	C1535.733521,726.365356 1535.090942,726.610474 1534.597046,727.030518 
	C1504.456665,752.659607 1472.109497,775.200500 1438.497681,796.003052 
	C1376.339233,834.473206 1310.611572,865.289551 1241.174927,888.134827 
	C1156.627441,915.951721 1070.087280,933.742126 980.992920,936.545044 
	C944.098694,937.705811 907.015991,936.824036 870.173828,934.459290 
	C839.718262,932.504395 809.351440,927.847473 779.191284,922.891052 
	C720.014465,913.166199 663.029907,895.681030 609.743530,868.039185 
	C567.089661,845.912903 527.334717,819.196167 491.707031,786.494202 
	C460.979828,758.290466 432.528320,727.987061 404.375977,697.291931 
	C386.500885,677.802368 368.169647,658.584778 348.620239,640.810059 
	C315.715668,610.892456 278.024445,588.042236 237.127319,570.540833 
	C197.844437,553.730164 157.014481,543.694824 114.144371,543.146423 
	C100.005241,542.965637 85.832443,543.370117 71.714691,544.189880 
	C59.612701,544.892639 47.541168,546.362366 35.504429,547.876526 
	C23.970636,549.327454 12.498968,551.272217 0.999998,553.000000 
	C1.000000,457.645782 1.000000,362.291534 0.999999,266.468628 
z"/>
<path fill="#064483" opacity="1.000000" stroke="none" 
	d="
M0.999998,553.468628 
	C12.498968,551.272217 23.970636,549.327454 35.504429,547.876526 
	C47.541168,546.362366 59.612701,544.892639 71.714691,544.189880 
	C85.832443,543.370117 100.005241,542.965637 114.144371,543.146423 
	C157.014481,543.694824 197.844437,553.730164 237.127319,570.540833 
	C278.024445,588.042236 315.715668,610.892456 348.620239,640.810059 
	C368.169647,658.584778 386.500885,677.802368 404.375977,697.291931 
	C432.528320,727.987061 460.979828,758.290466 491.707031,786.494202 
	C527.334717,819.196167 567.089661,845.912903 609.743530,868.039185 
	C663.029907,895.681030 720.014465,913.166199 779.191284,922.891052 
	C809.351440,927.847473 839.718262,932.504395 870.173828,934.459290 
	C907.015991,936.824036 944.098694,937.705811 980.992920,936.545044 
	C1070.087280,933.742126 1156.627441,915.951721 1241.174927,888.134827 
	C1310.611572,865.289551 1376.339233,834.473206 1438.497681,796.003052 
	C1472.109497,775.200500 1504.456665,752.659607 1534.597046,727.030518 
	C1535.090942,726.610474 1535.733521,726.365356 1536.653320,726.019287 
	C1537.000000,825.647766 1537.000000,925.295593 1537.000000,1024.971680 
	C1025.115723,1024.971680 513.231506,1024.971680 1.000000,1024.971680 
	C1.000000,867.979248 1.000000,710.958313 0.999998,553.468628 
z"/>
<path fill="#FAC520" opacity="1.000000" stroke="none" 
	d="
M1472.926758,517.842773 
	C1472.492310,517.886292 1472.057983,517.929810 1470.891602,518.010010 
	C1465.410522,519.010925 1460.661377,519.975159 1455.912231,520.939331 
	C1455.912231,520.939392 1455.982544,520.961731 1455.537109,520.950195 
	C1451.729492,521.248474 1448.367432,521.558350 1444.672119,521.643555 
	C1442.033691,521.334961 1439.709229,521.018433 1437.426392,521.206909 
	C1427.042725,522.064453 1416.678345,523.156677 1406.292603,523.982971 
	C1398.207275,524.626221 1390.105225,525.295349 1382.002197,525.425720 
	C1370.602539,525.609070 1359.195068,525.212891 1347.791382,525.242493 
	C1340.870117,525.260498 1333.949585,525.614319 1326.590576,525.884033 
	C1315.442749,524.654785 1304.687500,523.648987 1294.035889,521.981323 
	C1283.314209,520.302734 1272.695557,517.966248 1262.031738,515.918030 
	C1249.489868,511.937164 1236.837891,508.270691 1224.425903,503.919434 
	C1177.966919,487.632294 1134.785400,465.288330 1095.624390,435.143188 
	C1059.401123,407.259491 1029.705078,373.424683 1003.302856,336.502625 
	C984.662231,310.434784 966.587708,283.961121 948.347778,257.608154 
	C926.378662,225.867386 902.785522,195.455811 874.904175,168.625412 
	C853.402466,147.934143 830.624207,128.771790 806.709167,110.844856 
	C773.748901,86.137581 738.987976,64.348434 702.558472,45.339008 
	C673.190186,30.014238 643.053162,16.162685 613.128601,1.328760 
	C920.905518,1.000000 1228.811035,1.000000 1537.000000,1.000000 
	C1537.000000,167.687454 1537.000000,334.375061 1536.606079,501.492920 
	C1532.371582,503.090088 1528.531006,504.257019 1524.690430,505.423920 
	C1524.690430,505.423920 1524.545532,505.324585 1524.126465,505.528076 
	C1506.780396,509.768646 1489.853638,513.805725 1472.926758,517.842773 
z"/>
<path fill="#069BF7" opacity="1.000000" stroke="none" 
	d="
M1525.108521,505.568665 
	C1528.531006,504.257019 1532.371582,503.090088 1536.606079,501.961578 
	C1537.000000,502.000000 1537.000000,502.500000 1537.000000,502.750000 
	C1533.175537,503.904449 1529.351074,504.808929 1525.108521,505.568665 
z"/>
<path fill="#069BF7" opacity="1.000000" stroke="none" 
	d="
M1445.005249,521.868225 
	C1448.367432,521.558350 1451.729492,521.248474 1455.526611,520.914795 
	C1451.347778,521.922424 1446.781250,523.424133 1442.110840,523.894775 
	C1429.433594,525.172180 1416.726562,526.279724 1404.004883,526.960876 
	C1386.791504,527.882446 1369.535034,529.187195 1352.329956,528.813599 
	C1323.311035,528.183472 1294.491577,525.018250 1266.247559,517.848145 
	C1264.973633,517.524780 1263.771729,516.917236 1262.283936,516.180054 
	C1272.695557,517.966248 1283.314209,520.302734 1294.035889,521.981323 
	C1304.687500,523.648987 1315.442749,524.654785 1327.019653,525.964539 
	C1361.985840,528.071777 1396.029663,527.594055 1430.253906,523.843506 
	C1430.667480,523.840881 1430.828857,523.779419 1431.402466,523.767090 
	C1436.211670,523.166870 1440.608398,522.517578 1445.005249,521.868225 
z"/>
<path fill="#069BF7" opacity="1.000000" stroke="none" 
	d="
M1473.187988,518.098877 
	C1489.853638,513.805725 1506.780396,509.768646 1524.053955,505.578003 
	C1523.596069,506.283600 1522.920532,507.697449 1521.967407,507.919312 
	C1506.120483,511.608429 1490.239380,515.150879 1474.359741,518.698669 
	C1474.094971,518.757812 1473.754272,518.477112 1473.187988,518.098877 
z"/>
<path fill="#069BF7" opacity="1.000000" stroke="none" 
	d="
M1456.368896,520.955566 
	C1460.661377,519.975159 1465.410522,519.010925 1470.574951,518.094849 
	C1466.268677,519.085999 1461.547241,520.028931 1456.368896,520.955566 
z"/>
<path fill="#FCCF06" opacity="1.000000" stroke="none" 
	d="
M1444.672119,521.643555 
	C1440.608398,522.517578 1436.211670,523.166870 1431.292480,523.662476 
	C1430.449951,523.397827 1430.193726,523.489746 1430.001831,523.784546 
	C1396.029663,527.594055 1361.985840,528.071777 1327.457764,525.897827 
	C1333.949585,525.614319 1340.870117,525.260498 1347.791382,525.242493 
	C1359.195068,525.212891 1370.602539,525.609070 1382.002197,525.425720 
	C1390.105225,525.295349 1398.207275,524.626221 1406.292603,523.982971 
	C1416.678345,523.156677 1427.042725,522.064453 1437.426392,521.206909 
	C1439.709229,521.018433 1442.033691,521.334961 1444.672119,521.643555 
z"/>
<path fill="#FAC520" opacity="1.000000" stroke="none" 
	d="
M1430.253906,523.843506 
	C1430.193726,523.489746 1430.449951,523.397827 1430.880127,523.613403 
	C1430.828857,523.779419 1430.667480,523.840881 1430.253906,523.843506 
z"/>
</svg>