<svg xmlns="http://www.w3.org/2000/svg" xmlns:xlink="http://www.w3.org/1999/xlink" width="500" zoomAndPan="magnify" viewBox="0 0 375 374.999991" height="500" preserveAspectRatio="xMidYMid meet" version="1.2"><defs><clipPath id="014e065c94"><path d="M 58.789062 56.878906 L 316.039062 56.878906 L 316.039062 185.878906 L 58.789062 185.878906 Z M 58.789062 56.878906 "/></clipPath><clipPath id="ce567ecdf0"><path d="M 113.453125 111.882812 L 261.203125 111.882812 L 261.203125 186 L 113.453125 186 Z M 113.453125 111.882812 "/></clipPath><clipPath id="749ea7f62e"><path d="M 118.960938 117.390625 L 256 117.390625 L 256 185.640625 L 118.960938 185.640625 Z M 118.960938 117.390625 "/></clipPath><clipPath id="991d78dc8c"><path d="M 155.152344 121.234375 L 219.652344 121.234375 L 219.652344 185.734375 L 155.152344 185.734375 Z M 155.152344 121.234375 "/></clipPath></defs><g id="e13b45004b"><rect x="0" width="375" y="0" height="374.999991" style="fill:#ffffff;fill-opacity:1;stroke:none;"/><rect x="0" width="375" y="0" height="374.999991" style="fill:#ffffff;fill-opacity:1;stroke:none;"/><g clip-rule="nonzero" clip-path="url(#014e065c94)"><path style=" stroke:none;fill-rule:nonzero;fill:#e1a730;fill-opacity:1;" d="M 58.789062 185.503906 C 58.789062 114.46875 116.378906 56.878906 187.414062 56.878906 C 258.449219 56.878906 316.039062 114.46875 316.039062 185.503906 Z M 58.789062 185.503906 "/></g><g clip-rule="nonzero" clip-path="url(#ce567ecdf0)"><path style=" stroke:none;fill-rule:nonzero;fill:#ffffff;fill-opacity:1;" d="M 113.460938 185.753906 C 113.460938 144.957031 146.535156 111.882812 187.328125 111.882812 C 228.125 111.882812 261.199219 144.957031 261.199219 185.753906 Z M 113.460938 185.753906 "/></g><g clip-rule="nonzero" clip-path="url(#749ea7f62e)"><path style=" stroke:none;fill-rule:nonzero;fill:#f4d4b7;fill-opacity:1;" d="M 118.964844 185.640625 C 118.964844 147.945312 149.523438 117.390625 187.214844 117.390625 C 224.90625 117.390625 255.464844 147.945312 255.464844 185.640625 Z M 118.964844 185.640625 "/></g><g clip-rule="nonzero" clip-path="url(#991d78dc8c)"><path style=" stroke:none;fill-rule:nonzero;fill:#36130a;fill-opacity:1;" d="M 217.894531 143.640625 L 209.472656 137.265625 L 209.472656 124.953125 C 209.472656 124.804688 209.445312 124.664062 209.390625 124.53125 C 209.332031 124.394531 209.253906 124.273438 209.148438 124.171875 C 209.046875 124.066406 208.925781 123.988281 208.792969 123.929688 C 208.65625 123.875 208.515625 123.847656 208.367188 123.847656 L 199.78125 123.847656 C 199.636719 123.847656 199.496094 123.875 199.359375 123.929688 C 199.222656 123.988281 199.105469 124.066406 199 124.171875 C 198.898438 124.273438 198.816406 124.394531 198.761719 124.53125 C 198.703125 124.664062 198.675781 124.804688 198.675781 124.953125 L 198.675781 129.257812 L 190.113281 122.796875 C 189.714844 122.5 189.277344 122.273438 188.804688 122.117188 C 188.332031 121.960938 187.84375 121.882812 187.347656 121.882812 C 186.847656 121.882812 186.363281 121.960938 185.890625 122.117188 C 185.417969 122.273438 184.980469 122.5 184.582031 122.796875 L 156.800781 143.640625 C 155.941406 144.261719 155.425781 145.101562 155.261719 146.152344 C 155.226562 146.402344 155.214844 146.65625 155.230469 146.910156 C 155.242188 147.164062 155.28125 147.414062 155.347656 147.660156 C 155.410156 147.90625 155.5 148.144531 155.609375 148.375 C 155.722656 148.605469 155.855469 148.820312 156.007812 149.023438 C 156.164062 149.222656 156.335938 149.410156 156.527344 149.578125 C 156.71875 149.746094 156.925781 149.894531 157.148438 150.019531 C 157.367188 150.144531 157.597656 150.25 157.839844 150.332031 C 158.082031 150.410156 158.328125 150.46875 158.582031 150.5 C 158.765625 150.507812 158.949219 150.507812 159.136719 150.5 C 159.988281 150.5 160.757812 150.242188 161.4375 149.722656 L 161.625 149.578125 L 161.625 184.242188 C 161.625 184.386719 161.652344 184.53125 161.707031 184.664062 C 161.765625 184.800781 161.84375 184.921875 161.949219 185.023438 C 162.050781 185.128906 162.171875 185.207031 162.308594 185.265625 C 162.441406 185.320312 162.585938 185.347656 162.730469 185.347656 L 212.019531 185.347656 C 212.164062 185.347656 212.308594 185.320312 212.441406 185.265625 C 212.578125 185.207031 212.699219 185.128906 212.800781 185.023438 C 212.90625 184.921875 212.984375 184.800781 213.039062 184.664062 C 213.097656 184.53125 213.125 184.386719 213.125 184.242188 L 213.125 149.625 L 213.3125 149.769531 C 213.992188 150.285156 214.761719 150.542969 215.613281 150.542969 C 216.222656 150.539062 216.796875 150.398438 217.339844 150.128906 C 217.878906 149.855469 218.335938 149.476562 218.699219 148.992188 C 219.34375 148.148438 219.585938 147.199219 219.429688 146.152344 C 219.269531 145.101562 218.753906 144.261719 217.894531 143.640625 Z M 200.855469 126.027344 L 207.261719 126.027344 L 207.261719 135.664062 L 200.832031 130.851562 Z M 196.351562 183.167969 L 178.339844 183.167969 L 178.339844 152.753906 C 178.339844 152.574219 178.375 152.398438 178.441406 152.230469 C 178.511719 152.0625 178.609375 151.914062 178.734375 151.785156 C 178.863281 151.65625 179.011719 151.558594 179.179688 151.488281 C 179.347656 151.417969 179.519531 151.382812 179.703125 151.382812 L 194.992188 151.382812 C 195.171875 151.382812 195.347656 151.417969 195.511719 151.488281 C 195.679688 151.554688 195.828125 151.65625 195.953125 151.78125 C 196.082031 151.910156 196.179688 152.058594 196.25 152.222656 C 196.320312 152.390625 196.351562 152.5625 196.351562 152.746094 Z M 210.945312 183.167969 L 198.488281 183.167969 L 198.488281 152.753906 C 198.488281 152.292969 198.398438 151.847656 198.21875 151.417969 C 198.042969 150.992188 197.789062 150.613281 197.460938 150.285156 C 197.132812 149.957031 196.757812 149.707031 196.328125 149.527344 C 195.902344 149.351562 195.457031 149.261719 194.992188 149.257812 L 179.703125 149.257812 C 179.238281 149.261719 178.792969 149.351562 178.367188 149.527344 C 177.9375 149.707031 177.5625 149.957031 177.234375 150.285156 C 176.90625 150.613281 176.652344 150.992188 176.476562 151.417969 C 176.296875 151.847656 176.207031 152.292969 176.207031 152.753906 L 176.207031 183.167969 L 163.75 183.167969 L 163.75 148.0625 L 187.347656 130.363281 L 210.945312 148.0625 Z M 216.953125 147.765625 C 216.8125 147.941406 216.644531 148.085938 216.449219 148.195312 C 216.257812 148.308594 216.046875 148.378906 215.824219 148.410156 C 215.601562 148.441406 215.382812 148.429688 215.164062 148.375 C 214.945312 148.320312 214.746094 148.230469 214.5625 148.097656 L 188.011719 128.183594 C 187.820312 128.046875 187.605469 127.976562 187.371094 127.976562 C 187.132812 127.976562 186.917969 128.046875 186.726562 128.183594 L 160.132812 148.0625 C 159.757812 148.347656 159.335938 148.457031 158.871094 148.394531 C 158.414062 148.320312 158.046875 148.097656 157.761719 147.734375 C 157.492188 147.34375 157.398438 146.917969 157.476562 146.449219 C 157.546875 145.992188 157.769531 145.621094 158.140625 145.34375 L 185.863281 124.511719 C 186.304688 124.175781 186.796875 124.011719 187.347656 124.011719 C 187.894531 124.015625 188.386719 124.175781 188.828125 124.5 L 216.609375 145.332031 C 216.980469 145.609375 217.203125 145.980469 217.273438 146.4375 C 217.34375 146.910156 217.234375 147.335938 216.953125 147.722656 Z M 216.953125 147.765625 "/></g><path style="fill:none;stroke-width:5;stroke-linecap:butt;stroke-linejoin:miter;stroke:#ffffff;stroke-opacity:1;stroke-miterlimit:4;" d="M 0.000515029 2.502294 L 98.958691 2.501984 " transform="matrix(0.737053,0.138753,-0.138753,0.737053,46.370257,156.604823)"/><path style="fill:none;stroke-width:5;stroke-linecap:butt;stroke-linejoin:miter;stroke:#ffffff;stroke-opacity:1;stroke-miterlimit:4;" d="M -0.00211024 2.500733 L 102.294697 2.499924 " transform="matrix(0.71735,0.211706,-0.211706,0.71735,54.944996,126.28467)"/><path style="fill:none;stroke-width:5;stroke-linecap:butt;stroke-linejoin:miter;stroke:#ffffff;stroke-opacity:1;stroke-miterlimit:4;" d="M 0.000125537 2.502096 L 98.398117 2.502747 " transform="matrix(0.656496,0.356448,-0.356448,0.656496,74.247254,96.712808)"/><path style="fill:none;stroke-width:5;stroke-linecap:butt;stroke-linejoin:miter;stroke:#ffffff;stroke-opacity:1;stroke-miterlimit:4;" d="M 0.00176446 2.498745 L 97.525055 2.501444 " transform="matrix(0.73696,-0.13925,0.13925,0.73696,256.053093,172.092365)"/><path style="fill:none;stroke-width:5;stroke-linecap:butt;stroke-linejoin:miter;stroke:#ffffff;stroke-opacity:1;stroke-miterlimit:4;" d="M -0.00133067 2.498973 L 96.60126 2.497796 " transform="matrix(0.719485,-0.211756,0.211756,0.719485,249.342879,146.135338)"/><path style="fill:none;stroke-width:5;stroke-linecap:butt;stroke-linejoin:miter;stroke:#ffffff;stroke-opacity:1;stroke-miterlimit:4;" d="M -0.00258451 2.500648 L 96.601589 2.500648 " transform="matrix(0,0.75,-0.75,0,189.371579,39.435532)"/><path style="fill:none;stroke-width:5;stroke-linecap:butt;stroke-linejoin:miter;stroke:#ffffff;stroke-opacity:1;stroke-miterlimit:4;" d="M -0.000244618 2.500886 L 98.397747 2.500235 " transform="matrix(0.656496,-0.356448,0.356448,0.656496,235.936849,130.217466)"/><path style="fill:none;stroke-width:5;stroke-linecap:butt;stroke-linejoin:miter;stroke:#ffffff;stroke-opacity:1;stroke-miterlimit:4;" d="M -0.000180575 2.49827 L 92.32472 2.498693 " transform="matrix(0.517832,0.539025,-0.539025,0.517832,107.131879,68.999381)"/><path style="fill:none;stroke-width:5;stroke-linecap:butt;stroke-linejoin:miter;stroke:#ffffff;stroke-opacity:1;stroke-miterlimit:4;" d="M 0.0015406 2.501945 L 92.324991 2.496849 " transform="matrix(0.518291,-0.538584,0.538584,0.518291,219.893882,120.231439)"/><path style="fill:none;stroke-width:5;stroke-linecap:butt;stroke-linejoin:miter;stroke:#ffffff;stroke-opacity:1;stroke-miterlimit:4;" d="M -0.00130464 2.498026 L 91.406562 2.497367 " transform="matrix(0.273708,0.694691,-0.694691,0.273708,147.2904,52.207801)"/><path style="fill:none;stroke-width:5;stroke-linecap:butt;stroke-linejoin:miter;stroke:#ffffff;stroke-opacity:1;stroke-miterlimit:4;" d="M -0.00291774 2.499325 L 91.407897 2.500288 " transform="matrix(0.273654,-0.694712,0.694712,0.273654,202.123863,115.278866)"/><path style="fill:none;stroke-width:10;stroke-linecap:butt;stroke-linejoin:miter;stroke:#79a1b8;stroke-opacity:1;stroke-miterlimit:4;" d="M 0.000363245 4.999278 L 343.229558 4.999278 " transform="matrix(0.749522,0.000000000000000124,-0.000000000000000124,0.749522,58.78879,187.034181)"/><path style="fill:none;stroke-width:10;stroke-linecap:butt;stroke-linejoin:miter;stroke:#286181;stroke-opacity:1;stroke-miterlimit:4;" d="M 0.000363245 5.00077 L 343.229558 5.00077 " transform="matrix(0.749522,0.000000000000000124,-0.000000000000000124,0.749522,58.78879,195.771345)"/><path style="fill:none;stroke-width:10;stroke-linecap:butt;stroke-linejoin:miter;stroke:#5c6c7d;stroke-opacity:1;stroke-miterlimit:4;" d="M 0.000363245 5.002283 L 343.229558 5.002283 " transform="matrix(0.749522,0.000000000000000248,-0.000000000000000248,0.749522,58.78879,204.508491)"/><g style="fill:#36130a;fill-opacity:1;"><g transform="translate(108.1125, 262.767163)"><path style="stroke:none" d="M 14.5625 -30.078125 L 14.5625 0 L 3.53125 0 L 3.53125 -48.46875 L 14.5625 -48.46875 L 33.84375 -18.390625 L 33.953125 -18.390625 L 33.953125 -48.46875 L 45 -48.46875 L 45 0 L 33.953125 0 L 14.6875 -30.078125 Z M 14.5625 -30.078125 "/></g></g><g style="fill:#36130a;fill-opacity:1;"><g transform="translate(157.226146, 262.767163)"><path style="stroke:none" d="M 47.359375 -27.140625 L 47.359375 -16.625 C 46.097656 -10.863281 43.351562 -6.503906 39.125 -3.546875 C 34.894531 -0.597656 30.175781 0.875 24.96875 0.875 C 18.425781 0.875 12.851562 -1.570312 8.25 -6.46875 C 3.644531 -11.363281 1.34375 -17.273438 1.34375 -24.203125 C 1.34375 -31.253906 3.59375 -37.207031 8.09375 -42.0625 C 12.601562 -46.914062 18.226562 -49.34375 24.96875 -49.34375 C 32.84375 -49.34375 39.070312 -46.582031 43.65625 -41.0625 L 36.421875 -33.140625 C 33.835938 -37.285156 30.234375 -39.359375 25.609375 -39.359375 C 22.203125 -39.359375 19.296875 -37.878906 16.890625 -34.921875 C 14.484375 -31.960938 13.28125 -28.390625 13.28125 -24.203125 C 13.28125 -20.085938 14.484375 -16.570312 16.890625 -13.65625 C 19.296875 -10.738281 22.203125 -9.28125 25.609375 -9.28125 C 28.429688 -9.28125 30.890625 -10.128906 32.984375 -11.828125 C 35.078125 -13.535156 36.125 -15.800781 36.125 -18.625 L 24.96875 -18.625 L 24.96875 -27.140625 Z M 47.359375 -27.140625 "/></g></g><g style="fill:#36130a;fill-opacity:1;"><g transform="translate(206.516039, 262.767163)"><path style="stroke:none" d="M 40.765625 -48.46875 L 40.765625 -17.21875 C 40.765625 -11.257812 39.160156 -6.753906 35.953125 -3.703125 C 32.742188 -0.648438 28.046875 0.875 21.859375 0.875 C 15.671875 0.875 10.96875 -0.648438 7.75 -3.703125 C 4.539062 -6.753906 2.9375 -11.257812 2.9375 -17.21875 L 2.9375 -48.46875 L 13.984375 -48.46875 L 13.984375 -20.4375 C 13.984375 -16.519531 14.597656 -13.796875 15.828125 -12.265625 C 17.066406 -10.742188 19.078125 -9.984375 21.859375 -9.984375 C 24.640625 -9.984375 26.644531 -10.742188 27.875 -12.265625 C 29.113281 -13.796875 29.734375 -16.519531 29.734375 -20.4375 L 29.734375 -48.46875 Z M 40.765625 -48.46875 "/></g></g><g style="fill:#36130a;fill-opacity:1;"><g transform="translate(250.819425, 262.767163)"><path style="stroke:none" d=""/></g></g><g style="fill:#36130a;fill-opacity:1;"><g transform="translate(9.895312, 306.452955)"><path style="stroke:none" d="M 0.25 -19.984375 L 0.25 -24.984375 L 17.8125 -24.984375 L 17.8125 -19.984375 L 11.875 -19.984375 L 11.875 0 L 6.171875 0 L 6.171875 -19.984375 Z M 0.25 -19.984375 "/></g></g><g style="fill:#36130a;fill-opacity:1;"><g transform="translate(27.940232, 306.452955)"><path style="stroke:none" d="M 1.8125 -24.984375 L 10.75 -24.984375 C 13.15625 -24.984375 15.113281 -24.34375 16.625 -23.0625 C 18.132812 -21.78125 18.890625 -19.945312 18.890625 -17.5625 C 18.890625 -15.726562 18.429688 -14.1875 17.515625 -12.9375 C 16.597656 -11.695312 15.351562 -10.828125 13.78125 -10.328125 L 22.375 0 L 15.140625 0 L 7.515625 -9.875 L 7.515625 0 L 1.8125 0 Z M 7.515625 -13.90625 L 8.171875 -13.90625 C 8.703125 -13.90625 9.144531 -13.910156 9.5 -13.921875 C 9.863281 -13.941406 10.28125 -14.015625 10.75 -14.140625 C 11.21875 -14.265625 11.59375 -14.4375 11.875 -14.65625 C 12.15625 -14.875 12.394531 -15.195312 12.59375 -15.625 C 12.800781 -16.050781 12.90625 -16.566406 12.90625 -17.171875 C 12.90625 -17.773438 12.800781 -18.285156 12.59375 -18.703125 C 12.394531 -19.128906 12.15625 -19.453125 11.875 -19.671875 C 11.59375 -19.898438 11.21875 -20.070312 10.75 -20.1875 C 10.28125 -20.3125 9.863281 -20.382812 9.5 -20.40625 C 9.144531 -20.425781 8.703125 -20.4375 8.171875 -20.4375 L 7.515625 -20.4375 Z M 7.515625 -13.90625 "/></g></g><g style="fill:#36130a;fill-opacity:1;"><g transform="translate(49.618361, 306.452955)"><path style="stroke:none" d="M 14.5 -24.984375 L 24.59375 0 L 18.46875 0 L 16.625 -5 L 7.109375 -5 L 5.265625 0 L -0.84375 0 L 9.234375 -24.984375 Z M 14.6875 -10 L 11.90625 -17.265625 L 11.84375 -17.265625 L 9.046875 -10 Z M 14.6875 -10 "/></g></g><g style="fill:#36130a;fill-opacity:1;"><g transform="translate(73.355312, 306.452955)"><path style="stroke:none" d="M 7.515625 -15.5 L 7.515625 0 L 1.8125 0 L 1.8125 -24.984375 L 7.515625 -24.984375 L 17.4375 -9.484375 L 17.5 -9.484375 L 17.5 -24.984375 L 23.203125 -24.984375 L 23.203125 0 L 17.5 0 L 7.578125 -15.5 Z M 7.515625 -15.5 "/></g></g><g style="fill:#36130a;fill-opacity:1;"><g transform="translate(98.363885, 306.452955)"><path style="stroke:none" d="M 11.015625 -25.4375 C 12.367188 -25.4375 13.691406 -25.238281 14.984375 -24.84375 C 16.273438 -24.445312 17.234375 -24.0625 17.859375 -23.6875 L 18.78125 -23.078125 L 16.46875 -18.53125 C 16.289062 -18.65625 16.039062 -18.8125 15.71875 -19 C 15.394531 -19.195312 14.785156 -19.457031 13.890625 -19.78125 C 13.003906 -20.101562 12.179688 -20.265625 11.421875 -20.265625 C 10.472656 -20.265625 9.738281 -20.0625 9.21875 -19.65625 C 8.707031 -19.25 8.453125 -18.703125 8.453125 -18.015625 C 8.453125 -17.671875 8.570312 -17.351562 8.8125 -17.0625 C 9.050781 -16.769531 9.460938 -16.457031 10.046875 -16.125 C 10.640625 -15.789062 11.15625 -15.519531 11.59375 -15.3125 C 12.039062 -15.113281 12.726562 -14.8125 13.65625 -14.40625 C 15.269531 -13.726562 16.644531 -12.796875 17.78125 -11.609375 C 18.925781 -10.429688 19.5 -9.09375 19.5 -7.59375 C 19.5 -6.164062 19.238281 -4.914062 18.71875 -3.84375 C 18.207031 -2.769531 17.503906 -1.929688 16.609375 -1.328125 C 15.710938 -0.722656 14.71875 -0.273438 13.625 0.015625 C 12.53125 0.304688 11.347656 0.453125 10.078125 0.453125 C 8.992188 0.453125 7.925781 0.335938 6.875 0.109375 C 5.820312 -0.109375 4.941406 -0.382812 4.234375 -0.71875 C 3.523438 -1.050781 2.890625 -1.378906 2.328125 -1.703125 C 1.765625 -2.023438 1.351562 -2.296875 1.09375 -2.515625 L 0.703125 -2.84375 L 3.546875 -7.625 C 3.785156 -7.425781 4.113281 -7.171875 4.53125 -6.859375 C 4.957031 -6.546875 5.710938 -6.125 6.796875 -5.59375 C 7.878906 -5.070312 8.832031 -4.8125 9.65625 -4.8125 C 12.0625 -4.8125 13.265625 -5.628906 13.265625 -7.265625 C 13.265625 -7.609375 13.175781 -7.925781 13 -8.21875 C 12.832031 -8.507812 12.53125 -8.800781 12.09375 -9.09375 C 11.664062 -9.382812 11.285156 -9.613281 10.953125 -9.78125 C 10.617188 -9.957031 10.070312 -10.222656 9.3125 -10.578125 C 8.550781 -10.929688 7.988281 -11.203125 7.625 -11.390625 C 6.113281 -12.128906 4.941406 -13.0625 4.109375 -14.1875 C 3.285156 -15.3125 2.875 -16.519531 2.875 -17.8125 C 2.875 -20.050781 3.703125 -21.878906 5.359375 -23.296875 C 7.015625 -24.722656 8.898438 -25.4375 11.015625 -25.4375 Z M 11.015625 -25.4375 "/></g></g><g style="fill:#36130a;fill-opacity:1;"><g transform="translate(118.709837, 306.452955)"><path style="stroke:none" d="M 7.515625 -24.984375 L 7.515625 0 L 1.8125 0 L 1.8125 -24.984375 Z M 7.515625 -24.984375 "/></g></g><g style="fill:#36130a;fill-opacity:1;"><g transform="translate(128.035063, 306.452955)"><path style="stroke:none" d="M 0.25 -19.984375 L 0.25 -24.984375 L 17.8125 -24.984375 L 17.8125 -19.984375 L 11.875 -19.984375 L 11.875 0 L 6.171875 0 L 6.171875 -19.984375 Z M 0.25 -19.984375 "/></g></g><g style="fill:#36130a;fill-opacity:1;"><g transform="translate(146.079983, 306.452955)"><path style="stroke:none" d="M 7.515625 -24.984375 L 7.515625 0 L 1.8125 0 L 1.8125 -24.984375 Z M 7.515625 -24.984375 "/></g></g><g style="fill:#36130a;fill-opacity:1;"><g transform="translate(155.405209, 306.452955)"><path style="stroke:none" d="M 0.703125 -12.5 C 0.703125 -16.113281 1.929688 -19.171875 4.390625 -21.671875 C 6.847656 -24.179688 9.816406 -25.4375 13.296875 -25.4375 C 16.785156 -25.4375 19.75 -24.1875 22.1875 -21.6875 C 24.632812 -19.195312 25.859375 -16.132812 25.859375 -12.5 C 25.859375 -8.851562 24.65625 -5.78125 22.25 -3.28125 C 19.851562 -0.789062 16.867188 0.453125 13.296875 0.453125 C 9.640625 0.453125 6.625 -0.78125 4.25 -3.25 C 1.882812 -5.726562 0.703125 -8.8125 0.703125 -12.5 Z M 6.84375 -12.5 C 6.84375 -11.1875 7.046875 -9.988281 7.453125 -8.90625 C 7.859375 -7.832031 8.5625 -6.921875 9.5625 -6.171875 C 10.570312 -5.429688 11.816406 -5.0625 13.296875 -5.0625 C 15.410156 -5.0625 17.007812 -5.785156 18.09375 -7.234375 C 19.175781 -8.691406 19.71875 -10.445312 19.71875 -12.5 C 19.71875 -14.539062 19.164062 -16.289062 18.0625 -17.75 C 16.957031 -19.21875 15.367188 -19.953125 13.296875 -19.953125 C 11.234375 -19.953125 9.640625 -19.21875 8.515625 -17.75 C 7.398438 -16.289062 6.84375 -14.539062 6.84375 -12.5 Z M 6.84375 -12.5 "/></g></g><g style="fill:#36130a;fill-opacity:1;"><g transform="translate(181.957891, 306.452955)"><path style="stroke:none" d="M 7.515625 -15.5 L 7.515625 0 L 1.8125 0 L 1.8125 -24.984375 L 7.515625 -24.984375 L 17.4375 -9.484375 L 17.5 -9.484375 L 17.5 -24.984375 L 23.203125 -24.984375 L 23.203125 0 L 17.5 0 L 7.578125 -15.5 Z M 7.515625 -15.5 "/></g></g><g style="fill:#36130a;fill-opacity:1;"><g transform="translate(206.966463, 306.452955)"><path style="stroke:none" d="M 14.5 -24.984375 L 24.59375 0 L 18.46875 0 L 16.625 -5 L 7.109375 -5 L 5.265625 0 L -0.84375 0 L 9.234375 -24.984375 Z M 14.6875 -10 L 11.90625 -17.265625 L 11.84375 -17.265625 L 9.046875 -10 Z M 14.6875 -10 "/></g></g><g style="fill:#36130a;fill-opacity:1;"><g transform="translate(230.703415, 306.452955)"><path style="stroke:none" d="M 7.515625 -24.984375 L 7.515625 -5 L 16.109375 -5 L 16.109375 0 L 1.8125 0 L 1.8125 -24.984375 Z M 7.515625 -24.984375 "/></g></g><g style="fill:#36130a;fill-opacity:1;"><g transform="translate(247.809757, 306.452955)"><path style="stroke:none" d=""/></g></g><g style="fill:#36130a;fill-opacity:1;"><g transform="translate(256.075294, 306.452955)"><path style="stroke:none" d="M 7.515625 -24.984375 L 7.515625 -5 L 16.109375 -5 L 16.109375 0 L 1.8125 0 L 1.8125 -24.984375 Z M 7.515625 -24.984375 "/></g></g><g style="fill:#36130a;fill-opacity:1;"><g transform="translate(273.181637, 306.452955)"><path style="stroke:none" d="M 7.515625 -24.984375 L 7.515625 0 L 1.8125 0 L 1.8125 -24.984375 Z M 7.515625 -24.984375 "/></g></g><g style="fill:#36130a;fill-opacity:1;"><g transform="translate(282.506848, 306.452955)"><path style="stroke:none" d="M 9.625 0 L -0.84375 -24.984375 L 5.578125 -24.984375 L 11.875 -8.5625 L 18.171875 -24.984375 L 24.59375 -24.984375 L 14.109375 0 Z M 9.625 0 "/></g></g><g style="fill:#36130a;fill-opacity:1;"><g transform="translate(306.243814, 306.452955)"><path style="stroke:none" d="M 7.515625 -24.984375 L 7.515625 0 L 1.8125 0 L 1.8125 -24.984375 Z M 7.515625 -24.984375 "/></g></g><g style="fill:#36130a;fill-opacity:1;"><g transform="translate(315.569055, 306.452955)"><path style="stroke:none" d="M 7.515625 -15.5 L 7.515625 0 L 1.8125 0 L 1.8125 -24.984375 L 7.515625 -24.984375 L 17.4375 -9.484375 L 17.5 -9.484375 L 17.5 -24.984375 L 23.203125 -24.984375 L 23.203125 0 L 17.5 0 L 7.578125 -15.5 Z M 7.515625 -15.5 "/></g></g><g style="fill:#36130a;fill-opacity:1;"><g transform="translate(340.577613, 306.452955)"><path style="stroke:none" d="M 24.40625 -13.984375 L 24.40625 -8.5625 C 23.757812 -5.601562 22.34375 -3.359375 20.15625 -1.828125 C 17.976562 -0.304688 15.550781 0.453125 12.875 0.453125 C 9.5 0.453125 6.625 -0.804688 4.25 -3.328125 C 1.882812 -5.847656 0.703125 -8.894531 0.703125 -12.46875 C 0.703125 -16.101562 1.859375 -19.171875 4.171875 -21.671875 C 6.492188 -24.179688 9.394531 -25.4375 12.875 -25.4375 C 16.925781 -25.4375 20.132812 -24.015625 22.5 -21.171875 L 18.78125 -17.078125 C 17.445312 -19.210938 15.585938 -20.28125 13.203125 -20.28125 C 11.441406 -20.28125 9.941406 -19.519531 8.703125 -18 C 7.460938 -16.476562 6.84375 -14.632812 6.84375 -12.46875 C 6.84375 -10.351562 7.460938 -8.539062 8.703125 -7.03125 C 9.941406 -5.53125 11.441406 -4.78125 13.203125 -4.78125 C 14.660156 -4.78125 15.925781 -5.21875 17 -6.09375 C 18.082031 -6.976562 18.625 -8.144531 18.625 -9.59375 L 12.875 -9.59375 L 12.875 -13.984375 Z M 24.40625 -13.984375 "/></g></g><g style="fill:#36130a;fill-opacity:1;"><g transform="translate(124.205815, 333.67655)"><path style="stroke:none" d="M -0.0625 -11.96875 L 0.59375 -14.78125 L 2.125 -17.15625 L 4.1875 -17.15625 L 3.015625 -14.859375 L 4.25 -14.859375 L 3.59375 -11.96875 Z M 4.515625 -11.96875 L 5.171875 -14.78125 L 6.703125 -17.15625 L 8.765625 -17.15625 L 7.578125 -14.859375 L 8.828125 -14.859375 L 8.15625 -11.96875 Z M 4.515625 -11.96875 "/></g></g><g style="fill:#36130a;fill-opacity:1;"><g transform="translate(133.665633, 333.67655)"><path style="stroke:none" d="M -1.203125 0 L 2.75 -17.15625 L 6.28125 -17.15625 L 5.96875 -8.953125 L 7.859375 -17.15625 L 11.171875 -17.15625 L 7.21875 0 L 3.875 0 L 4.125 -8.59375 L 2.15625 0 Z M -1.203125 0 "/></g></g><g style="fill:#36130a;fill-opacity:1;"><g transform="translate(143.803998, 333.67655)"><path style="stroke:none" d="M -1.203125 0 L 2.75 -17.15625 L 9.625 -17.15625 L 8.859375 -13.84375 L 5.484375 -13.84375 L 4.703125 -10.5 L 7.9375 -10.5 L 7.203125 -7.265625 L 3.96875 -7.265625 L 3.046875 -3.328125 L 6.640625 -3.328125 L 5.890625 0 Z M -1.203125 0 "/></g></g><g style="fill:#36130a;fill-opacity:1;"><g transform="translate(152.226054, 333.67655)"><path style="stroke:none" d="M 0.359375 0 L 2.203125 -17.171875 L 5.46875 -17.171875 L 4.03125 -5.484375 L 7.84375 -17.171875 L 11.125 -17.171875 L 5.046875 0 Z M 0.359375 0 "/></g></g><g style="fill:#36130a;fill-opacity:1;"><g transform="translate(161.785664, 333.67655)"><path style="stroke:none" d="M -1.203125 0 L 2.75 -17.15625 L 9.625 -17.15625 L 8.859375 -13.84375 L 5.484375 -13.84375 L 4.703125 -10.5 L 7.9375 -10.5 L 7.203125 -7.265625 L 3.96875 -7.265625 L 3.046875 -3.328125 L 6.640625 -3.328125 L 5.890625 0 Z M -1.203125 0 "/></g></g><g style="fill:#36130a;fill-opacity:1;"><g transform="translate(170.20772, 333.67655)"><path style="stroke:none" d="M 2.75 -17.15625 L 8.015625 -17.15625 C 8.859375 -17.15625 9.46875 -16.960938 9.84375 -16.578125 C 10.21875 -16.203125 10.40625 -15.671875 10.40625 -14.984375 C 10.40625 -14.296875 10.285156 -13.421875 10.046875 -12.359375 C 9.816406 -11.390625 9.507812 -10.628906 9.125 -10.078125 C 8.75 -9.535156 8.222656 -9.160156 7.546875 -8.953125 C 8.035156 -8.835938 8.347656 -8.570312 8.484375 -8.15625 C 8.628906 -7.75 8.625 -7.191406 8.46875 -6.484375 L 6.921875 0 L 3.5625 0 L 5.109375 -6.703125 C 5.222656 -7.179688 5.203125 -7.488281 5.046875 -7.625 C 4.890625 -7.757812 4.5625 -7.828125 4.0625 -7.828125 L 2.265625 0 L -1.203125 0 Z M 5.609375 -10.796875 C 6.085938 -10.796875 6.445312 -11.316406 6.6875 -12.359375 C 6.789062 -12.816406 6.84375 -13.15625 6.84375 -13.375 C 6.851562 -13.601562 6.816406 -13.757812 6.734375 -13.84375 C 6.648438 -13.9375 6.507812 -13.984375 6.3125 -13.984375 L 5.5 -13.984375 L 4.78125 -10.796875 Z M 5.609375 -10.796875 "/></g></g><g style="fill:#36130a;fill-opacity:1;"><g transform="translate(179.926984, 333.67655)"><path style="stroke:none" d=""/></g></g><g style="fill:#36130a;fill-opacity:1;"><g transform="translate(184.796684, 333.67655)"><path style="stroke:none" d="M 2.296875 0.15625 C 1.054688 0.15625 0.234375 -0.273438 -0.171875 -1.140625 C -0.578125 -2.015625 -0.578125 -3.335938 -0.171875 -5.109375 L 1.53125 -12.5 C 1.90625 -14.082031 2.535156 -15.28125 3.421875 -16.09375 C 4.316406 -16.90625 5.460938 -17.3125 6.859375 -17.3125 C 7.992188 -17.3125 8.820312 -17.082031 9.34375 -16.625 C 9.863281 -16.175781 10.140625 -15.519531 10.171875 -14.65625 C 10.210938 -13.789062 10.082031 -12.679688 9.78125 -11.328125 L 6.421875 -11.328125 L 6.78125 -12.859375 C 6.875 -13.273438 6.890625 -13.59375 6.828125 -13.8125 C 6.773438 -14.039062 6.601562 -14.15625 6.3125 -14.15625 C 5.65625 -14.15625 5.226562 -13.726562 5.03125 -12.875 L 3.109375 -4.578125 C 2.992188 -4.054688 2.96875 -3.660156 3.03125 -3.390625 C 3.09375 -3.128906 3.289062 -3 3.625 -3 C 3.957031 -3 4.222656 -3.128906 4.421875 -3.390625 C 4.628906 -3.660156 4.789062 -4.054688 4.90625 -4.578125 L 5.46875 -7.03125 L 4.546875 -7.03125 L 5.234375 -9.984375 L 9.421875 -9.984375 L 7.125 0 L 5.75 0 L 5.484375 -1.4375 C 4.628906 -0.375 3.566406 0.15625 2.296875 0.15625 Z M 2.296875 0.15625 "/></g></g><g style="fill:#36130a;fill-opacity:1;"><g transform="translate(194.675603, 333.67655)"><path style="stroke:none" d="M -1.359375 0 L 2.59375 -17.15625 L 5.90625 -17.15625 L 1.953125 0 Z M -1.359375 0 "/></g></g><g style="fill:#36130a;fill-opacity:1;"><g transform="translate(199.405607, 333.67655)"><path style="stroke:none" d="M 0.359375 0 L 2.203125 -17.171875 L 5.46875 -17.171875 L 4.03125 -5.484375 L 7.84375 -17.171875 L 11.125 -17.171875 L 5.046875 0 Z M 0.359375 0 "/></g></g><g style="fill:#36130a;fill-opacity:1;"><g transform="translate(208.965216, 333.67655)"><path style="stroke:none" d="M -1.203125 0 L 2.75 -17.15625 L 9.625 -17.15625 L 8.859375 -13.84375 L 5.484375 -13.84375 L 4.703125 -10.5 L 7.9375 -10.5 L 7.203125 -7.265625 L 3.96875 -7.265625 L 3.046875 -3.328125 L 6.640625 -3.328125 L 5.890625 0 Z M -1.203125 0 "/></g></g><g style="fill:#36130a;fill-opacity:1;"><g transform="translate(217.387273, 333.67655)"><path style="stroke:none" d=""/></g></g><g style="fill:#36130a;fill-opacity:1;"><g transform="translate(222.256973, 333.67655)"><path style="stroke:none" d="M 2.75 0.15625 C 1.34375 0.15625 0.390625 -0.238281 -0.109375 -1.03125 C -0.609375 -1.832031 -0.679688 -3.019531 -0.328125 -4.59375 L 2.578125 -17.15625 L 5.90625 -17.15625 L 3.03125 -4.734375 C 2.90625 -4.179688 2.859375 -3.753906 2.890625 -3.453125 C 2.929688 -3.148438 3.125 -3 3.46875 -3 C 3.8125 -3 4.070312 -3.144531 4.25 -3.4375 C 4.4375 -3.738281 4.585938 -4.171875 4.703125 -4.734375 L 7.578125 -17.15625 L 10.921875 -17.15625 L 8.015625 -4.59375 C 7.660156 -3.019531 7.046875 -1.832031 6.171875 -1.03125 C 5.304688 -0.238281 4.164062 0.15625 2.75 0.15625 Z M 2.75 0.15625 "/></g></g><g style="fill:#36130a;fill-opacity:1;"><g transform="translate(231.916362, 333.67655)"><path style="stroke:none" d="M 2.75 -17.15625 L 7.28125 -17.15625 C 8.65625 -17.15625 9.53125 -16.710938 9.90625 -15.828125 C 10.289062 -14.941406 10.289062 -13.644531 9.90625 -11.9375 C 9.5 -10.238281 8.9375 -8.957031 8.21875 -8.09375 C 7.5 -7.226562 6.46875 -6.796875 5.125 -6.796875 L 3.734375 -6.796875 L 2.171875 0 L -1.203125 0 Z M 4.640625 -9.890625 C 5.054688 -9.890625 5.378906 -9.960938 5.609375 -10.109375 C 5.835938 -10.265625 6.015625 -10.484375 6.140625 -10.765625 C 6.265625 -11.054688 6.394531 -11.46875 6.53125 -12 C 6.6875 -12.71875 6.71875 -13.234375 6.625 -13.546875 C 6.539062 -13.867188 6.257812 -14.03125 5.78125 -14.03125 L 5.40625 -14.03125 L 4.453125 -9.890625 Z M 4.640625 -9.890625 "/></g></g><g style="fill:#36130a;fill-opacity:1;"><g transform="translate(241.535834, 333.67655)"><path style="stroke:none" d="M 0.484375 -11.96875 L 1.65625 -14.25 L 0.421875 -14.25 L 1.078125 -17.15625 L 4.734375 -17.15625 L 4.078125 -14.34375 L 2.53125 -11.96875 Z M 5.09375 -11.96875 L 6.265625 -14.25 L 5.03125 -14.25 L 5.6875 -17.15625 L 9.34375 -17.15625 L 8.6875 -14.34375 L 7.15625 -11.96875 Z M 5.09375 -11.96875 "/></g></g></g></svg>